# xmcd
#
# Track frame offsets:
#	150
#	20364
#	42996
#	62382
#	114243
#	138376
#	150473
#	177866
#	210731
#
# Disc length: 3023 seconds
# Revision: 0
# Processed by: cddbd v1.5.2PL0 Copyright (c) Steve Scherf et al.
# Submitted via: dBpowerAMP V12.0
#
DISCID=6c0bcd09
DTITLE=The Blues Project - Projections
DYEAR=1966
DGENRE=Blues
TTITLE0=I Can't Keep From Crying [stereo]
TTITLE1=Steve's Song [stereo]
TTITLE2=You Can't Catch Me [stereo]
TTITLE3=Two Trains Running [stereo]
TTITLE4=Wake Me, Shake Me [stereo]
TTITLE5=Cheryl's Going Home [stereo]
TTITLE6=Flute Thing [stereo]
TTITLE7=Caress Me Baby [stereo]
TTITLE8=Fly Away [stereo]
EXTD=
EXTT0=
EXTT1=
EXTT2=
EXTT3=
EXTT4=
EXTT5=
EXTT6=
EXTT7=
EXTT8=
PLAYORDER=
